<!-- Generated by IcoMoon.io -->
<svg version="1.1" xmlns="http://www.w3.org/2000/svg" width="64" height="64" viewBox="0 0 64 64">
<title>icon_3_ผู้ประสานงาน</title>
<path d="M43.75 38.416c0.831-0.807 1.54-1.734 2.1-2.753h0.61c2.94 0 5.332-2.392 5.332-5.332v-13.63c0-2.078-0.377-4.106-1.121-6.027-1.203-3.109-3.29-5.764-6.033-7.678-2.809-1.96-6.11-2.996-9.548-2.996h-6.181c-3.437 0-6.739 1.036-9.548 2.997-2.728 1.904-4.806 4.539-6.011 7.624-0.008 0.018-0.016 0.037-0.023 0.056-0.743 1.922-1.12 3.949-1.12 6.025v11.444c0 1.655 1.346 3.001 3.001 3.001h0.724c0.282 0 0.554-0.042 0.813-0.115 0.241 2.821 1.49 5.437 3.502 7.387-5.304 2.237-8.858 7.467-8.858 13.363v11.103c0 0.616 0.5 1.116 1.116 1.116h38.992c0.617 0 1.116-0.5 1.116-1.116v-11.103c0-5.897-3.556-11.128-8.862-13.364zM46.799 33.411c0.235-0.775 0.388-1.57 0.456-2.38 0.258 0.073 0.53 0.114 0.811 0.114h0.724c0.233 0 0.459-0.029 0.677-0.080-0.305 1.248-1.365 2.203-2.669 2.346zM49.56 21.899v6.246c0 0.424-0.345 0.769-0.769 0.769h-0.724c-0.424 0-0.769-0.345-0.769-0.769v-6.607c0-0.424 0.345-0.769 0.769-0.769h0.724c0.424 0 0.769 0.345 0.769 0.769v0.361zM16.701 28.144c0 0.424-0.345 0.769-0.769 0.769h-0.724c-0.424 0-0.769-0.345-0.769-0.769v-6.607c0-0.424 0.345-0.769 0.769-0.769h0.724c0.424 0 0.769 0.345 0.769 0.769v6.607zM16.701 17.181v1.458c-0.246-0.065-0.503-0.104-0.769-0.104h-0.724c-0.266 0-0.523 0.038-0.769 0.104v-1.939c0-1.78 0.319-3.519 0.95-5.168 0.008-0.017 0.015-0.034 0.021-0.051 1.042-2.693 2.849-4.994 5.228-6.654 2.433-1.698 5.293-2.595 8.27-2.595h6.181c2.978 0 5.838 0.897 8.27 2.594 2.378 1.66 4.187 3.96 5.229 6.654 0.644 1.663 0.971 3.42 0.971 5.221v1.939c-0.246-0.065-0.503-0.104-0.769-0.104h-0.724c-0.266 0-0.523 0.038-0.769 0.104v-1.458c0-7.152-5.818-12.97-12.97-12.97h-4.658c-7.151-0-12.97 5.818-12.97 12.97zM18.933 17.181c0-5.921 4.817-10.738 10.738-10.738h4.658c5.921 0 10.737 4.817 10.737 10.738v3.481l-4.997-6.995c-0.238-0.334-0.64-0.51-1.047-0.459s-0.753 0.321-0.901 0.703c-0.998 2.568-2.727 4.747-5.001 6.303s-4.931 2.378-7.686 2.378h-6.499v-5.411zM18.933 30.029v-5.205h6.499c3.207 0 6.3-0.957 8.947-2.767 2.096-1.434 3.794-3.323 4.987-5.532l5.699 7.977v5.527c0 1.176-0.215 2.317-0.635 3.402h-8.096c-0.617 0-1.116 0.5-1.116 1.116s0.5 1.116 1.116 1.116h6.87c-0.644 0.868-1.434 1.624-2.34 2.23-0.683 0.456-1.426 0.823-2.209 1.090-0.009 0.003-0.019 0.006-0.028 0.009l-5.184 1.745c-0.927 0.312-1.957 0.312-2.886 0l-5.184-1.745c-0.794-0.267-1.547-0.637-2.237-1.099-2.631-1.758-4.202-4.697-4.202-7.864zM39.125 47.404l-6.009-3.234v-1.057c0.352-0.059 0.699-0.145 1.039-0.26l3.952-1.33 1.019 5.881zM30.884 43.112v1.057l-6.010 3.234 1.020-5.881 3.951 1.33c0.34 0.114 0.687 0.2 1.039 0.259zM30.884 61.768h-17.264v-9.987c0-5.431 3.562-10.196 8.72-11.751 0.455 0.275 0.93 0.519 1.42 0.731l-1.477 8.522c-0.073 0.421 0.101 0.846 0.447 1.096 0.194 0.14 0.423 0.211 0.653 0.211 0.181 0 0.363-0.044 0.529-0.133l2.872-1.545 4.1 4.099v8.758zM28.836 47.806l3.164-1.703 3.163 1.702-3.163 3.163-3.164-3.163zM50.38 61.768h-17.264v-8.758l4.099-4.099 2.872 1.546c0.166 0.089 0.347 0.133 0.529 0.133 0.23 0 0.459-0.071 0.653-0.211 0.346-0.25 0.52-0.675 0.447-1.096l-1.476-8.522c0.489-0.211 0.964-0.455 1.419-0.73 5.158 1.554 8.721 6.319 8.721 11.751v9.987z"></path>
<path d="M45.286 53.224h-5.655c-0.617 0-1.116 0.5-1.116 1.116s0.5 1.116 1.116 1.116h5.655c0.617 0 1.116-0.5 1.116-1.116s-0.5-1.116-1.116-1.116z"></path>
</svg>
