<!-- Generated by IcoMoon.io -->
<svg version="1.1" xmlns="http://www.w3.org/2000/svg" width="64" height="64" viewBox="0 0 64 64">
<title>icon_2_ข้อมูลบริหารสูงสุด</title>
<path d="M57.529 48.295l-0.228-0.065c-3.309-0.891-4.428-1.742-5.9-2.303-5.225-1.99-6.584-3.426-6.932-4.103-0.012-0.023-0.022-0.051-0.033-0.074l-0.033-4.566c2.795-3.741 4.793-8.41 4.793-13.247 0 0 1.887-8.040-2.625-15.607l-0.002-0.034c-0.004 0.001-0.010 0.001-0.018 0.002-0.977-1.634-2.252-3.244-3.912-4.747-1.736-1.571-6.020-3.551-11.185-3.551-3.537 0-7.488 0.928-11.318 3.551-7.43 5.089-6.68 17.923-6.68 17.923s0.52 0.131 1.455 0.254c-0.068 0.719-0.104 1.455-0.104 2.209 0 4.837 1.998 9.506 4.793 13.247l-0.033 4.566c-0.012 0.023-0.021 0.051-0.033 0.074-0.348 0.678-1.707 2.113-6.932 4.104-1.473 0.56-2.592 1.412-5.9 2.303l-0.229 0.065c-3.012 0.996-5.037 3.789-5.037 6.941v8.764h61.131v-8.764c0-3.152-2.025-5.945-5.037-6.941zM45.286 11.649c0.734 1.671 1.228 3.484 1.467 5.395 0.037 0.299 0.068 0.59 0.092 0.875-0.43-0.804-0.9-1.488-1.43-2.087-0.584-0.662-1.238-1.204-1.951-1.622 0.539-1.307 1.219-2.091 1.822-2.561zM16.648 14.813c0.389-1.965 0.963-3.701 1.713-5.159 0.867-1.693 1.971-3.007 3.279-3.903 2.988-2.047 6.291-3.084 9.813-3.084 4.543 0 8.174 1.755 9.396 2.861 1.242 1.124 2.303 2.38 3.174 3.75-1.059 0.709-2.23 1.928-3.068 4.020-0.438-0.075-0.889-0.113-1.35-0.113-1.99 0-4.135 0.673-6.557 2.057-5.834 3.333-11.23 4.033-14.73 4.033-0.838 0-1.574-0.041-2.186-0.096 0.053-1.167 0.189-2.71 0.516-4.365zM25.776 61.332h-21.676v-6.096c0-1.988 1.271-3.748 3.166-4.395l0.149-0.043c2.494-0.672 3.871-1.33 4.979-1.861 0.428-0.203 0.797-0.383 1.156-0.52 1.969-0.75 4.426-1.785 6.232-3.102l5.662 2.961 0.979-0.828 0.689 3.445-1.336 10.438zM21.739 43.33c0.059-0.096 0.115-0.191 0.166-0.289 0.047-0.092 0.082-0.17 0.1-0.217l0.223-0.492 0.004-0.565 0.012-1.541c1.438 1.422 2.967 2.605 4.475 3.477l-1.627 1.379-3.352-1.752zM32.001 61.332h-3.537l1.195-9.332h4.678l1.35 9.332h-3.685zM28.749 45.48l0.648-0.551c0.912 0.301 1.789 0.461 2.603 0.461 0.855 0 1.783-0.18 2.748-0.51l0.531 0.451-0.799 4h-4.963l-0.77-3.852zM32.001 42.723c-1.105 0-2.557-0.5-4.088-1.406-1.713-1.020-3.428-2.477-4.959-4.223-3.484-3.97-5.482-8.766-5.482-13.157-0-0.682 0.033-1.351 0.098-2.006 0.242 0.007 0.49 0.010 0.748 0.010 3.902 0 9.752-0.783 16.053-4.384 2.121-1.212 3.836-1.706 5.234-1.706 3.357 0 4.879 2.85 5.793 5.428 0.313 0.883 0.705 1.491 1.115 1.907 0.010 0.248 0.016 0.499 0.016 0.751 0 4.392-1.998 9.188-5.482 13.157-1.531 1.746-3.246 3.205-4.959 4.223-1.531 0.906-2.983 1.406-4.086 1.406zM42.312 43.41l-3.197 1.672-1.711-1.449c1.469-0.865 2.955-2.023 4.354-3.406l0.012 1.541 0.004 0.565 0.221 0.492c0.020 0.043 0.053 0.123 0.102 0.217 0.065 0.125 0.139 0.248 0.217 0.369zM50.767 61.332h-8v-2.664h8v2.664zM59.9 61.332h-6.465v-5.332h-4c0-0.736-0.598-1.332-1.334-1.332h-2.666c-0.736 0-1.334 0.596-1.334 1.332h-4v5.332h-1.719l-1.504-10.391 0.728-3.641 1.154 0.977 5.543-2.9c1.799 1.289 4.211 2.305 6.148 3.043 0.357 0.135 0.727 0.315 1.154 0.518 1.107 0.531 2.484 1.19 4.979 1.861l0.148 0.043c1.897 0.647 3.166 2.406 3.166 4.395v6.096z"></path>
</svg>
