<!-- Generated by IcoMoon.io -->
<svg version="1.1" xmlns="http://www.w3.org/2000/svg" width="64" height="64" viewBox="0 0 64 64">
<title>icon_4_วิทยาเขต</title>
<path d="M32.37 27.815c4.038 0 7.324-3.286 7.324-7.324s-3.286-7.324-7.324-7.324-7.324 3.286-7.324 7.324 3.285 7.324 7.324 7.324zM32.37 15.259c2.885 0 5.231 2.347 5.231 5.231s-2.347 5.232-5.231 5.232-5.232-2.347-5.232-5.232 2.347-5.232 5.232-5.232z"></path>
<path d="M52.541 39.324h-7.493l3.188-4.604c6.021-8.026 5.15-21.219-1.863-28.231-3.789-3.79-8.828-5.877-14.188-5.877-5.359 0-10.398 2.087-14.188 5.877-7.013 7.012-7.885 20.206-1.887 28.2l3.21 4.636h-7.861l-11.459 24.064h64l-11.459-24.065zM17.808 33.465c-5.44-7.254-4.66-19.168 1.67-25.497 3.394-3.394 7.908-5.264 12.708-5.264s9.313 1.87 12.708 5.264c6.33 6.329 7.11 18.244 1.646 25.529l-14.355 20.73-14.377-20.762zM12.782 41.417h7.987l11.416 16.486 11.415-16.486h7.618l9.467 19.88h-57.371l9.467-19.88z"></path>
</svg>
