<!-- Generated by IcoMoon.io -->
<svg version="1.1" xmlns="http://www.w3.org/2000/svg" width="64" height="64" viewBox="0 0 64 64">
<title>icon_5_ศูนย์การศึกษานอกที่ตั้ง</title>
<path d="M62.125 33.874h-26.822c0.208-0.587 0.322-1.218 0.322-1.875 0-3.102-2.523-5.625-5.625-5.625h-5.656l-2.221-7.509c0.125 0.006 0.25 0.009 0.377 0.009 4.136 0 7.5-3.364 7.5-7.5s-3.364-7.5-7.5-7.5-7.5 3.364-7.5 7.5c0 1.391 0.382 2.694 1.044 3.812-2.411 0.364-4.328 2.222-4.725 4.678l-3.663 18.318c-0.26 1.078-0.196 2.18 0.165 3.192h-2.196c-1.034 0-1.875-0.841-1.875-1.875v-22.5c0-1.036-0.84-1.875-1.875-1.875s-1.875 0.839-1.875 1.875v22.5c0 2.29 1.376 4.264 3.345 5.14l-3.289 13.155c-0.251 1.005 0.36 2.023 1.364 2.274s2.023-0.36 2.274-1.364l3.395-13.58c2.103 0 8.102 0 10.197 0l3.395 13.58c0.251 1.005 1.269 1.615 2.274 1.364s1.615-1.269 1.364-2.274l-3.168-12.67h4.457l2.685 10.741c0.766 3.058 3.849 4.839 6.822 4.092 3.008-0.751 4.844-3.811 4.093-6.822l-3.75-15c-0.044-0.174-0.096-0.343-0.154-0.51h9.822v20.625c0 1.035 0.84 1.875 1.875 1.875s1.875-0.84 1.875-1.875v-20.625h13.25c1.035 0 1.875-0.84 1.875-1.875s-0.84-1.875-1.875-1.875zM22.5 7.624c2.068 0 3.75 1.682 3.75 3.75s-1.682 3.75-3.75 3.75-3.75-1.682-3.75-3.75 1.682-3.75 3.75-3.75zM16.325 18.959c0.804-0.249 1.712 0.072 2.165 0.842l2.655 8.98c0.235 0.797 0.967 1.343 1.798 1.343l7.057-0c1.034 0 1.875 0.841 1.875 1.875s-0.841 1.875-1.875 1.875h-9.375c-0.678 0-1.291-0.357-1.625-0.938-3.991-11.972-3.715-11.174-3.802-11.348-0.522-1.044 0.033-2.296 1.127-2.629zM35.569 54.043c0.251 1.004-0.361 2.025-1.366 2.276-0.985 0.248-2.015-0.34-2.272-1.365l-3.040-12.16c-0.209-0.835-0.959-1.42-1.819-1.42-6.244 0-7.589 0-13.947 0-1.219 0-2.115-1.147-1.819-2.33 0.017-0.066 2.155-10.762 2.168-10.829l2.018 6.054c0.111 0.331 0.402 0.788 0.608 1.068-0.030 0.133-0.047 0.27-0.047 0.411 0 1.035 0.84 1.875 1.875 1.875 0.569 0 9.157 0 12.072 0 0.862 0 1.61 0.584 1.819 1.42l3.75 14.999z"></path>
</svg>
