<!-- Generated by IcoMoon.io -->
<svg version="1.1" xmlns="http://www.w3.org/2000/svg" width="64" height="64" viewBox="0 0 64 64">
<title>icon_7_ไฟล์เอกสาร</title>
<path d="M61.323 28.8h-3.723v-6.686c0-1.606-1.308-2.914-2.914-2.914h-3.486v-2.575l-0.528-0.528c-0.001 0-0.001-0.001-0.001-0.002l-16.096-16.095h-26.042v11.733h-5.619c-1.606 0-2.914 1.308-2.914 2.914v46.599h0.006c-0.005 0.601 0.181 1.188 0.557 1.68 0.523 0.683 1.314 1.073 2.173 1.073h47.743c1.233 0 2.319-0.831 2.613-1.934l10.908-29.907v-0.189c0-1.837-1.126-3.17-2.677-3.17zM54.686 21.333c0.43 0 0.781 0.35 0.781 0.781v6.686h-4.267v-7.467h3.486zM35.2 3.643l12.358 12.357h-12.358v-12.357zM10.667 2.133h22.4v16h16v10.667h-35.487c-0.153 0-0.303 0.013-0.45 0.037-1.039 0.173-1.905 0.93-2.163 1.897l-0.3 0.823v-29.424zM2.133 14.647c0-0.431 0.351-0.781 0.781-0.781h5.619v23.504l-6.4 17.455v-40.178zM51.060 61.422c-0.070 0.261-0.309 0.445-0.581 0.445h-47.743c-0.259 0-0.411-0.148-0.478-0.237-0.067-0.087-0.171-0.273-0.131-0.435l10.871-29.817c0.070-0.261 0.31-0.445 0.581-0.445h47.743c0.405 0 0.509 0.582 0.535 0.874l-10.798 29.615z"></path>
<path d="M17.067 18.133h10.667c0.589 0 1.067-0.477 1.067-1.067s-0.478-1.067-1.067-1.067h-10.667c-0.589 0-1.067 0.477-1.067 1.067s0.478 1.067 1.067 1.067z"></path>
<path d="M17.067 10.667h10.667c0.589 0 1.067-0.477 1.067-1.067s-0.478-1.067-1.067-1.067h-10.667c-0.589 0-1.067 0.477-1.067 1.067s0.478 1.067 1.067 1.067z"></path>
<path d="M17.067 25.6h25.6c0.589 0 1.067-0.477 1.067-1.067s-0.478-1.067-1.067-1.067h-25.6c-0.589 0-1.067 0.477-1.067 1.067s0.478 1.067 1.067 1.067z"></path>
</svg>
