<!-- Generated by IcoMoon.io -->
<svg version="1.1" xmlns="http://www.w3.org/2000/svg" width="64" height="64" viewBox="0 0 64 64">
<title>icon_1_ข้อมูลพื้นฐานร.ร</title>
<path d="M63.061 59.616h-2.067v-26.176h2.067c0.343 0 0.658-0.187 0.824-0.487s0.153-0.667-0.031-0.956l-7.014-11.021c-0.172-0.271-0.471-0.435-0.793-0.435h-18.648l-4.459-4.459v-3.681h9.080c0.346 0 0.665-0.191 0.828-0.496s0.146-0.676-0.047-0.964l-1.657-2.485 1.657-2.485c0.192-0.288 0.21-0.659 0.047-0.964s-0.482-0.496-0.828-0.496h-9.080v-1.065c0-0.519-0.421-0.939-0.939-0.939s-0.939 0.421-0.939 0.939v12.636l-4.459 4.459h-18.648c-0.321 0-0.62 0.164-0.793 0.435l-7.014 11.021c-0.184 0.289-0.196 0.656-0.031 0.956s0.481 0.487 0.824 0.487h2.067v26.176h-2.067c-0.519 0-0.939 0.421-0.939 0.939s0.421 0.939 0.939 0.939h62.121c0.519 0 0.939-0.421 0.939-0.939s-0.421-0.939-0.939-0.939zM55.531 22.419l5.818 9.143h-12.929l-9.143-9.143h16.254zM40.264 6.388l-1.030 1.545c-0.21 0.316-0.21 0.727 0 1.042l1.030 1.546h-7.325v-4.133h7.325zM8.469 22.419h16.254l-9.143 9.143h-12.929l5.818-9.143zM4.885 33.44h11.084c0.031 0 0.062-0.002 0.093-0.005 0.013-0.001 0.026-0.004 0.039-0.006 0.017-0.002 0.034-0.005 0.052-0.008 0.015-0.003 0.030-0.007 0.045-0.011s0.029-0.007 0.044-0.011c0.015-0.005 0.029-0.010 0.044-0.015s0.029-0.010 0.043-0.016c0.014-0.006 0.027-0.012 0.040-0.019 0.014-0.007 0.029-0.013 0.043-0.021 0.013-0.007 0.025-0.015 0.038-0.022 0.014-0.008 0.028-0.016 0.041-0.025s0.027-0.020 0.041-0.030c0.011-0.008 0.022-0.016 0.033-0.025 0.024-0.020 0.047-0.040 0.069-0.063l15.367-15.367 15.367 15.367c0.022 0.022 0.045 0.043 0.069 0.063 0.011 0.009 0.022 0.016 0.033 0.025 0.014 0.010 0.027 0.021 0.041 0.030s0.027 0.017 0.041 0.025c0.013 0.008 0.025 0.016 0.038 0.022 0.014 0.008 0.028 0.014 0.043 0.021s0.027 0.013 0.040 0.019c0.014 0.006 0.028 0.010 0.042 0.016s0.029 0.011 0.044 0.016c0.014 0.004 0.029 0.008 0.043 0.011s0.030 0.008 0.046 0.011c0.017 0.003 0.033 0.005 0.050 0.008 0.014 0.002 0.027 0.005 0.041 0.006 0.031 0.003 0.062 0.005 0.093 0.005h11.084v26.176h-20.164v-13.088c0-1.623-1.32-2.943-2.943-2.943h-8.016c-1.623 0-2.943 1.32-2.943 2.943v13.088h-20.164v-26.176zM37.072 47.593h-10.145v-1.065c0-0.587 0.478-1.065 1.065-1.065h8.016c0.587 0 1.065 0.478 1.065 1.065v1.065zM26.928 49.472h4.133v10.145h-4.133v-10.145zM32.939 49.472h4.133v10.145h-4.133v-10.145z"></path>
<path d="M32 40.454c3.833 0 6.951-3.118 6.951-6.951s-3.118-6.951-6.951-6.951-6.951 3.118-6.951 6.951 3.118 6.951 6.951 6.951zM32 28.43c2.797 0 5.072 2.275 5.072 5.072s-2.275 5.072-5.072 5.072-5.072-2.275-5.072-5.072 2.275-5.072 5.072-5.072z"></path>
<path d="M32 34.442c0.519 0 0.939-0.421 0.939-0.939v-3.006c0-0.519-0.421-0.939-0.939-0.939s-0.939 0.421-0.939 0.939v2.067h-2.067c-0.519 0-0.939 0.421-0.939 0.939s0.421 0.939 0.939 0.939h3.006z"></path>
<path d="M21.98 48.595h-5.010c-0.519 0-0.939 0.421-0.939 0.939v6.012c0 0.519 0.421 0.939 0.939 0.939h5.010c0.519 0 0.939-0.421 0.939-0.939v-6.012c0-0.519-0.421-0.939-0.939-0.939zM21.041 50.474v1.127h-3.131v-1.127h3.131zM17.91 54.607v-1.127h3.131v1.127h-3.131z"></path>
<path d="M12.963 48.595h-5.010c-0.519 0-0.939 0.421-0.939 0.939v6.012c0 0.519 0.421 0.939 0.939 0.939h5.010c0.519 0 0.939-0.421 0.939-0.939v-6.012c0-0.519-0.421-0.939-0.939-0.939zM12.024 50.474v1.127h-3.131v-1.127h3.131zM8.892 54.607v-1.127h3.131v1.127h-3.131z"></path>
<path d="M21.667 36.571h-4.384c-0.691 0-1.252 0.562-1.252 1.252v6.701c0 0.519 0.421 0.939 0.939 0.939h5.010c0.519 0 0.939-0.421 0.939-0.939v-6.701c0-0.691-0.562-1.252-1.252-1.252zM21.041 38.45v2.129h-3.131v-2.129h3.131zM17.91 43.585v-1.127h3.131v1.127h-3.131z"></path>
<path d="M12.65 36.571h-4.384c-0.691 0-1.252 0.562-1.252 1.252v6.701c0 0.519 0.421 0.939 0.939 0.939h5.010c0.519 0 0.939-0.421 0.939-0.939v-6.701c0-0.691-0.562-1.252-1.252-1.252zM12.024 38.45v2.129h-3.131v-2.129h3.131zM8.892 43.585v-1.127h3.131v1.127h-3.131z"></path>
<path d="M51.037 56.485h5.010c0.519 0 0.939-0.421 0.939-0.939v-6.012c0-0.519-0.421-0.939-0.939-0.939h-5.010c-0.519 0-0.939 0.421-0.939 0.939v6.012c0 0.519 0.421 0.939 0.939 0.939zM51.977 54.607v-1.127h3.131v1.127h-3.131zM55.108 50.474v1.127h-3.131v-1.127h3.131z"></path>
<path d="M42.020 56.485h5.010c0.519 0 0.939-0.421 0.939-0.939v-6.012c0-0.519-0.421-0.939-0.939-0.939h-5.010c-0.519 0-0.939 0.421-0.939 0.939v6.012c0 0.519 0.421 0.939 0.939 0.939zM42.959 54.607v-1.127h3.131v1.127h-3.131zM46.090 50.474v1.127h-3.131v-1.127h3.131z"></path>
<path d="M51.037 45.464h5.010c0.519 0 0.939-0.421 0.939-0.939v-6.701c0-0.691-0.562-1.252-1.252-1.252h-4.384c-0.691 0-1.252 0.562-1.252 1.252v6.701c0 0.519 0.421 0.939 0.939 0.939zM51.977 43.585v-1.127h3.131v1.127h-3.131zM55.108 38.45v2.129h-3.131v-2.129h3.131z"></path>
<path d="M42.020 45.464h5.010c0.519 0 0.939-0.421 0.939-0.939v-6.701c0-0.691-0.562-1.252-1.252-1.252h-4.384c-0.691 0-1.252 0.562-1.252 1.252v6.701c0 0.519 0.421 0.939 0.939 0.939zM42.959 43.585v-1.127h3.131v1.127h-3.131zM46.090 38.45v2.129h-3.131v-2.129h3.131z"></path>
</svg>
