<!-- Generated by IcoMoon.io -->
<svg version="1.1" xmlns="http://www.w3.org/2000/svg" width="64" height="64" viewBox="0 0 64 64">
<title>icon_6_หน่วยงานเทียบเท่า</title>
<path d="M5.087 26.452h1.44c-0.010 0.075-0.016 0.151-0.016 0.229v28.039h-0.979c-0.985 0-1.784 0.799-1.784 1.784s0.799 1.784 1.784 1.784h52.935c0.985 0 1.784-0.799 1.784-1.784s-0.799-1.784-1.784-1.784h-0.979v-28.039c0-0.078-0.007-0.154-0.016-0.229h1.44c1.344 0 2.531-0.858 2.952-2.135s-0.022-2.672-1.103-3.472l-27.7-20.495c-0.63-0.467-1.492-0.467-2.122 0l-27.701 20.495c-1.081 0.8-1.524 2.195-1.103 3.472s1.607 2.135 2.952 2.135zM33.602 54.72h-3.204v-28.039c0-0.078-0.007-0.154-0.016-0.229h3.237c-0.010 0.075-0.016 0.151-0.016 0.229v28.039zM20.056 54.72h-3.204v-28.039c0-0.078-0.007-0.154-0.016-0.229h3.237c-0.010 0.075-0.016 0.151-0.016 0.229v28.039zM10.079 54.72v-26.255h3.204v26.255h-3.204zM23.625 54.72v-26.255h3.204v26.255h-3.204zM37.17 54.72v-26.255h3.204v26.255h-3.204zM50.716 54.72v-26.255h3.204v26.255h-3.204zM47.148 26.682v28.039h-3.204v-28.039c0-0.078-0.007-0.154-0.016-0.229h3.237c-0.010 0.075-0.017 0.151-0.017 0.229zM32 4.004l25.517 18.879h-51.034l25.517-18.879z"></path>
<path d="M61.82 60.431h-59.641c-0.985 0-1.784 0.799-1.784 1.784s0.799 1.784 1.784 1.784h59.641c0.985 0 1.784-0.799 1.784-1.784s-0.799-1.784-1.784-1.784z"></path>
</svg>
